<svg width="38" height="71" viewBox="0 0 38 71" fill="none" xmlns="http://www.w3.org/2000/svg">
<path d="M36.3724 1.22813L0.761603 17.1593C0.320546 17.3566 0.0836543 17.8411 0.198759 18.3103L12.8131 69.7382C12.9229 70.1855 13.3238 70.5 13.7844 70.5H28.1203C28.6233 70.5 29.048 70.1264 29.1122 69.6275L37.7726 2.26847C37.8722 1.49392 37.0853 0.909225 36.3724 1.22813Z" fill="#D6FAFF"/>
<path d="M37.07 7.47473L37.7631 2.27712C37.8665 1.50097 37.0782 0.91238 36.3635 1.23214L0.76505 17.1577C0.322462 17.3557 0.085678 17.8427 0.203274 18.3131L1.69765 24.2906C1.85281 24.9113 2.5428 25.2286 3.11501 24.9425L36.526 8.23699C36.8225 8.08876 37.0262 7.80327 37.07 7.47473Z" fill="#C2DDE0"/>
<path d="M30.1251 6.71543L32.9536 9.79006C33.0432 9.88753 33.0151 10.0437 32.8971 10.1037L23.2305 15.0227C23.0355 15.122 22.8456 14.8808 22.9879 14.7145L29.8259 6.72082C29.9038 6.62971 30.0439 6.62718 30.1251 6.71543Z" fill="white"/>
<path d="M24.0548 9.76523L26.8833 12.8399C26.9729 12.9373 26.9448 13.0935 26.8268 13.1535L17.1602 18.0725C16.9652 18.1718 16.7753 17.9306 16.9175 17.7643L23.7556 9.77063C23.8335 9.67951 23.9736 9.67699 24.0548 9.76523Z" fill="white"/>
<path d="M24.4181 46.9948L21.6362 29.8399C21.5577 29.3558 21.1396 29 20.6491 29H18.3977C17.887 29 17.4584 29.3848 17.4035 29.8925L15.5515 47.024C15.5189 47.325 15.6245 47.6245 15.8386 47.8386L19.2929 51.2929C19.6834 51.6834 20.3166 51.6834 20.7071 51.2929L24.1381 47.8619C24.3653 47.6347 24.4695 47.312 24.4181 46.9948Z" fill="#15B0C6" stroke="#18636D" stroke-width="0.5"/>
<path d="M20.9528 17.6118L25.0294 23.6823C25.4319 24.2817 25.425 25.0667 25.012 25.659L20.9354 31.5046C20.239 32.5032 18.761 32.5032 18.0646 31.5046L13.988 25.659C13.575 25.0667 13.5681 24.2817 13.9706 23.6823L18.0472 17.6118C18.7406 16.5793 20.2594 16.5793 20.9528 17.6118Z" fill="#FFC01D" stroke="#AE851C" stroke-width="0.5"/>
</svg>
