<svg width="99" height="71" viewBox="0 0 99 71" fill="none" xmlns="http://www.w3.org/2000/svg">
<rect x="18.4844" y="23" width="76.3519" height="7" rx="3.5" fill="#5272F2"/>
<rect x="18.4844" y="33" width="76.3519" height="7" rx="3.5" fill="#5272F2"/>
<rect x="18.4844" y="43" width="76.3519" height="7" rx="3.5" fill="#5272F2"/>
<rect x="18.4844" y="53" width="76.3519" height="7" rx="3.5" fill="#5272F2"/>
<path d="M89.8795 11.2573C89.6929 11.2573 89.575 11.3179 89.4137 11.4456C88.6884 12.0199 87.9241 12.4426 87.0962 12.7425C86.3682 13.0063 85.2309 13.3623 84.5108 12.8657C83.9216 12.4594 83.6336 11.6267 83.1365 11.0906C82.9059 10.842 82.5153 11.1766 82.3097 11.3152C81.4492 11.8952 80.6771 12.5077 79.7126 12.8077C78.7194 13.1167 77.8109 13.0687 76.8826 12.5034C76.1074 12.0314 75.4476 11.3167 74.5884 11.0761C74.0236 10.918 73.4683 11.0268 72.9172 11.2138C71.4337 11.7172 69.9839 12.357 68.4976 12.8512C67.2563 13.2639 65.9819 13.6438 64.6893 13.3874C63.7132 13.1937 62.8844 12.4166 61.9525 12.0398C60.6608 11.5174 59.4471 11.6728 58.1443 12.0542C56.1381 12.6416 54.1019 13.0153 52.0418 13.1555C47.838 13.4417 43.5709 13.3439 39.3594 13.3439" stroke="white" stroke-linecap="round"/>
</svg>
