<svg width="99" height="71" viewBox="0 0 99 71" fill="none" xmlns="http://www.w3.org/2000/svg">
<rect x="50.6328" y="29" width="44.2037" height="7" rx="3.5" fill="#5272F2"/>
<rect x="50.6328" y="42" width="44.2037" height="7" rx="3.5" fill="#5272F2"/>
<rect x="4.01758" y="42" width="44.2037" height="7" rx="3.5" fill="#5272F2"/>
<rect x="4.01758" y="29" width="44.2037" height="7" rx="3.5" fill="#5272F2"/>
<path d="M89.0983 11.2573C88.9117 11.2573 88.7938 11.3179 88.6324 11.4456C87.9072 12.0199 87.1429 12.4426 86.3149 12.7425C85.5869 13.0063 84.4496 13.3623 83.7295 12.8657C83.1403 12.4594 82.8524 11.6267 82.3553 11.0906C82.1247 10.842 81.7341 11.1766 81.5284 11.3152C80.6679 11.8952 79.8958 12.5077 78.9314 12.8077C77.9382 13.1167 77.0297 13.0687 76.1014 12.5034C75.3262 12.0314 74.6664 11.3167 73.8071 11.0761C73.2424 10.918 72.6871 11.0268 72.136 11.2138C70.6525 11.7172 69.2026 12.357 67.7163 12.8512C66.4751 13.2639 65.2007 13.6438 63.9081 13.3874C62.9319 13.1937 62.1032 12.4166 61.1713 12.0398C59.8795 11.5174 58.6658 11.6728 57.3631 12.0542C55.3569 12.6416 53.3206 13.0153 51.2606 13.1555C47.0568 13.4417 42.7897 13.3439 38.5781 13.3439" stroke="white" stroke-linecap="round"/>
</svg>
