<svg width="257" height="199" viewBox="0 0 257 199" fill="none" xmlns="http://www.w3.org/2000/svg">
<path d="M210.75 6.7959L249.792 45.9089L114.814 180.641C105.042 190.395 89.2124 190.38 79.4582 180.608L58.0782 159.189L210.75 6.7959Z" fill="#A5EB78"/>
<path d="M237.191 33L250.024 45.8563L110.861 184.766C103.76 191.853 92.259 191.843 85.1716 184.742V184.742L237.191 33Z" fill="#95D46C"/>
<rect x="7.18359" y="108.787" width="53.2178" height="90" transform="rotate(-45.2399 7.18359 108.787)" fill="#A5EB78"/>
<path d="M69 94.5L90 116.5C91.1667 117.5 94 119.5 96 119.5C98 119.5 101.167 117.5 102.5 116.5L213.5 5L252 43L221 74" stroke="black" stroke-width="10" stroke-linecap="round" stroke-linejoin="round"/>
<path d="M210 86L118.5 177.5C115.333 180.667 106.5 187.2 96.5 188C86.5 188.8 77.3333 181.333 74 177.5L5 107.5L43 70L56.5 83.5" stroke="black" stroke-width="10" stroke-linecap="round" stroke-linejoin="round"/>
</svg>
